<svg width="24" height="24" viewBox="0 0 24 24" fill="none" xmlns="http://www.w3.org/2000/svg">
<g id="BsCalendar2Check">
<path id="Vector" d="M16.281 12.2191C16.3508 12.2888 16.4062 12.3716 16.444 12.4627C16.4818 12.5538 16.5013 12.6515 16.5013 12.7501C16.5013 12.8488 16.4818 12.9465 16.444 13.0376C16.4062 13.1287 16.3508 13.2115 16.281 13.2811L11.781 17.7811C11.7113 17.851 11.6285 17.9064 11.5374 17.9442C11.4463 17.982 11.3486 18.0015 11.25 18.0015C11.1513 18.0015 11.0536 17.982 10.9625 17.9442C10.8714 17.9064 10.7886 17.851 10.719 17.7811L8.46897 15.5311C8.39924 15.4614 8.34392 15.3786 8.30619 15.2875C8.26845 15.1964 8.24902 15.0987 8.24902 15.0001C8.24902 14.9015 8.26845 14.8039 8.30619 14.7127C8.34392 14.6216 8.39924 14.5389 8.46897 14.4691C8.6098 14.3283 8.80081 14.2492 8.99997 14.2492C9.09859 14.2492 9.19624 14.2686 9.28735 14.3063C9.37846 14.3441 9.46124 14.3994 9.53097 14.4691L11.25 16.1896L15.219 12.2191C15.2886 12.1493 15.3714 12.0939 15.4625 12.0561C15.5536 12.0182 15.6513 11.9988 15.75 11.9988C15.8486 11.9988 15.9463 12.0182 16.0374 12.0561C16.1285 12.0939 16.2113 12.1493 16.281 12.2191Z" fill="white"/>
<path id="Vector_2" d="M5.25 0C5.44891 0 5.63968 0.0790176 5.78033 0.21967C5.92098 0.360322 6 0.551088 6 0.75V1.5H18V0.75C18 0.551088 18.079 0.360322 18.2197 0.21967C18.3603 0.0790176 18.5511 0 18.75 0C18.9489 0 19.1397 0.0790176 19.2803 0.21967C19.421 0.360322 19.5 0.551088 19.5 0.75V1.5H21C21.7956 1.5 22.5587 1.81607 23.1213 2.37868C23.6839 2.94129 24 3.70435 24 4.5V21C24 21.7956 23.6839 22.5587 23.1213 23.1213C22.5587 23.6839 21.7956 24 21 24H3C2.20435 24 1.44129 23.6839 0.87868 23.1213C0.316071 22.5587 0 21.7956 0 21V4.5C0 3.70435 0.316071 2.94129 0.87868 2.37868C1.44129 1.81607 2.20435 1.5 3 1.5H4.5V0.75C4.5 0.551088 4.57902 0.360322 4.71967 0.21967C4.86032 0.0790176 5.05109 0 5.25 0V0ZM3 3C2.60218 3 2.22064 3.15804 1.93934 3.43934C1.65804 3.72064 1.5 4.10218 1.5 4.5V21C1.5 21.3978 1.65804 21.7794 1.93934 22.0607C2.22064 22.342 2.60218 22.5 3 22.5H21C21.3978 22.5 21.7794 22.342 22.0607 22.0607C22.342 21.7794 22.5 21.3978 22.5 21V4.5C22.5 4.10218 22.342 3.72064 22.0607 3.43934C21.7794 3.15804 21.3978 3 21 3H3Z" fill="#A0AEC0"/>
<path id="Vector_3" d="M3.75 6C3.75 5.80109 3.82902 5.61032 3.96967 5.46967C4.11032 5.32902 4.30109 5.25 4.5 5.25H19.5C19.6989 5.25 19.8897 5.32902 20.0303 5.46967C20.171 5.61032 20.25 5.80109 20.25 6V7.5C20.25 7.69891 20.171 7.88968 20.0303 8.03033C19.8897 8.17098 19.6989 8.25 19.5 8.25H4.5C4.30109 8.25 4.11032 8.17098 3.96967 8.03033C3.82902 7.88968 3.75 7.69891 3.75 7.5V6Z" fill="#A0AEC0"/>
</g>
</svg>
