<svg width="16" height="16" viewBox="0 0 16 16" fill="none" xmlns="http://www.w3.org/2000/svg">
<g id="CkQuestion" clip-path="url(#clip0_52_3990)">
<path id="Vector" d="M9.18177 8.92746L9.2 8.91951C9.69572 8.70316 10.1237 8.35682 10.4387 7.91714C10.7537 7.47746 10.944 6.9608 10.9894 6.42184C11.0348 5.88287 10.9337 5.34166 10.6967 4.85547C10.4597 4.36929 10.0957 3.95621 9.64315 3.65997C9.19062 3.36372 8.66642 3.19533 8.12603 3.17261C7.58564 3.14989 7.04915 3.27368 6.57335 3.53089C6.09755 3.78811 5.70014 4.16917 5.42318 4.63374C5.14621 5.09832 5 5.62913 5 6.17C5 6.43522 5.10536 6.68957 5.2929 6.87711C5.48043 7.06464 5.73479 7.17 6 7.17C6.26522 7.17 6.51957 7.06464 6.70711 6.87711C6.89465 6.68957 7 6.43522 7 6.17V6.16983C6.99991 5.98952 7.04857 5.81254 7.14084 5.65762C7.2331 5.5027 7.36554 5.37561 7.52412 5.2898C7.68271 5.204 7.86155 5.16266 8.0417 5.17018C8.22186 5.1777 8.39663 5.23379 8.54751 5.33251C8.6984 5.43123 8.81978 5.56892 8.89882 5.73098C8.97785 5.89305 9.0116 6.07347 8.99648 6.25315C8.98137 6.43282 8.91795 6.60507 8.81295 6.75166C8.70794 6.89824 8.56526 7.0137 8.4 7.08583C7.98384 7.26746 7.62971 7.56657 7.38103 7.94649C7.13237 8.3264 6.99995 8.77061 7 9.22467L9.18177 8.92746ZM9.18177 8.92746C9.13019 8.9538 9.08624 8.99318 9.05441 9.04184C9.01888 9.09614 8.99997 9.15962 9 9.22451V9.22467C9 9.48988 8.89465 9.74424 8.70711 9.93177L8.47141 9.69607L8.70711 9.93178C8.51957 10.1193 8.26522 10.2247 8 10.2247C7.73479 10.2247 7.48043 10.1193 7.2929 9.93177C7.10537 9.74425 7.00002 9.48992 7 9.22472L9.18177 8.92746ZM3.74063 1.6254C5.00136 0.783007 6.48357 0.333367 7.99984 0.333333C10.0325 0.335582 11.9813 1.14406 13.4186 2.58138C14.856 4.01875 15.6645 5.96761 15.6667 8.00036C15.6666 9.51656 15.217 10.9987 14.3746 12.2594C13.5322 13.5202 12.3348 14.5028 10.9339 15.0831C9.53301 15.6634 7.9915 15.8152 6.50431 15.5194C5.01712 15.2235 3.65105 14.4934 2.57885 13.4212C1.50665 12.349 0.77647 10.9829 0.48065 9.49569C0.18483 8.0085 0.336655 6.46699 0.916927 5.06609C1.4972 3.66519 2.47985 2.46782 3.74063 1.6254ZM7.25924 12.7753C7.47851 12.9218 7.7363 13 8 13C8.35363 13 8.69276 12.8595 8.94281 12.6095C9.19286 12.3594 9.33334 12.0203 9.33334 11.6667C9.33334 11.403 9.25514 11.1452 9.10863 10.9259C8.96212 10.7066 8.75388 10.5357 8.51025 10.4348C8.26661 10.3339 7.99852 10.3075 7.73988 10.359C7.48124 10.4104 7.24367 10.5374 7.0572 10.7239C6.87072 10.9103 6.74374 11.1479 6.69229 11.4065C6.64084 11.6652 6.66725 11.9333 6.76816 12.1769C6.86908 12.4205 7.03998 12.6288 7.25924 12.7753Z" fill="#A0AEC0" stroke="#A0AEC0" stroke-width="0.666667"/>
</g>
<defs>
<clipPath id="clip0_52_3990">
<rect width="16" height="16" fill="white"/>
</clipPath>
</defs>
</svg>
