<svg width="17" height="16" viewBox="0 0 17 16" fill="none" xmlns="http://www.w3.org/2000/svg">
<g id=".left-icon">
<path id="Vector" d="M16.5 8C16.5 10.1217 15.6571 12.1566 14.1569 13.6569C12.6566 15.1571 10.6217 16 8.5 16C6.37827 16 4.34344 15.1571 2.84315 13.6569C1.34285 12.1566 0.5 10.1217 0.5 8C0.5 5.87827 1.34285 3.84344 2.84315 2.34315C4.34344 0.842855 6.37827 0 8.5 0C10.6217 0 12.6566 0.842855 14.1569 2.34315C15.6571 3.84344 16.5 5.87827 16.5 8V8ZM8.787 5.906C8.009 6.23 6.453 6.9 4.121 7.916C3.743 8.066 3.544 8.214 3.526 8.358C3.496 8.601 3.801 8.697 4.216 8.828L4.391 8.883C4.799 9.016 5.349 9.171 5.634 9.177C5.894 9.183 6.183 9.077 6.502 8.857C8.681 7.386 9.806 6.643 9.876 6.627C9.926 6.615 9.996 6.601 10.042 6.643C10.089 6.684 10.084 6.763 10.079 6.784C10.049 6.913 8.852 8.025 8.233 8.601C8.04 8.781 7.903 8.908 7.875 8.937C7.81334 9.00001 7.75067 9.06202 7.687 9.123C7.307 9.489 7.023 9.763 7.702 10.211C8.029 10.427 8.291 10.604 8.552 10.782C8.836 10.976 9.12 11.169 9.488 11.411C9.581 11.471 9.671 11.536 9.758 11.598C10.089 11.834 10.388 12.046 10.755 12.012C10.969 11.992 11.19 11.792 11.302 11.192C11.567 9.775 12.088 6.706 12.208 5.441C12.2153 5.33584 12.211 5.2302 12.195 5.126C12.1856 5.04192 12.1449 4.96446 12.081 4.909C11.99 4.84619 11.8815 4.81365 11.771 4.816C11.471 4.821 11.008 4.982 8.787 5.906V5.906Z" fill="white"/>
</g>
</svg>
